<?xml version="1.0" encoding="UTF-8" standalone="no"?>
<svg width="562px" height="562px" viewBox="0 0 562 562" version="1.1" xmlns="http://www.w3.org/2000/svg" xmlns:xlink="http://www.w3.org/1999/xlink">
    <!-- Generator: Sketch 39.1 (31720) - http://www.bohemiancoding.com/sketch -->
    <title>htk-logo</title>
    <desc>Created with Sketch.</desc>
    <defs></defs>
    <g id="Page-1" stroke="none" stroke-width="1" fill="none" fill-rule="evenodd">
        <g id="Desktop" transform="translate(-152.000000, -198.000000)">
            <g id="htk-logo" transform="translate(152.000000, 199.000000)">
                <g id="Lager_1">
                    <g id="Group">
                        <circle id="Oval" fill="#0E6A31" cx="281" cy="280" r="280.9"></circle>
                        <circle id="Oval" stroke="#FFFFFF" stroke-width="6" cx="281" cy="281" r="270.9"></circle>
                        <path d="M118.3,281 C118.3,370.5 191.2,443.6 280.5,443.8 C370.5,443.9 443.7,371.1 443.8,281.5 C443.8,191.5 371.1,118.4 281.5,118.3 C191.4,118.2 118.3,191.1 118.3,281 L118.3,281 Z" id="Shape" stroke="#FFFFFF" stroke-width="2"></path>
                        <g transform="translate(265.000000, 374.000000)" id="Shape" stroke="#FFFFFF" fill="#F3E600">
                            <path d="M3.2,25.3 C-0.5,20.7 -0.9,13.1 2.3,8.4 C2.9,7.5 3.3,7.3 4.2,8.1 C10.7,14 21.5,14.1 28,8.1 C29.1,7.1 29.5,7.6 30.1,8.6 C32.8,13.8 32.8,19 30,24.2 C29.5,25 29.2,25.4 28.1,24.7 C18.8,18.3 12.6,18.5 3.2,25.3 L3.2,25.3 Z"></path>
                            <path d="M6.5,28.7 C11.8,23.1 20.3,23.1 25.7,28.7 C20.5,33.9 10.7,33.2 6.5,28.7 L6.5,28.7 Z"></path>
                            <path d="M15.5,0.5 C19.3,0.5 22.1,1.4 24.7,3.1 C25.8,3.8 25.8,4.3 24.8,5.2 C20.3,9.3 12,9.3 7.4,5.3 C6.2,4.3 6.5,3.7 7.6,3.1 C10.3,1.4 13.1,0.4 15.5,0.5 L15.5,0.5 Z"></path>
                        </g>
                        <g id="Racken_1_" transform="translate(162.000000, 178.000000)" stroke="#FFFFFF">
                            <path d="M103.1,64.5 C103.1,77 99.3,87.9 89,95.6 C80.4,102 70.6,103.3 60.3,102.6 C47.2,101.7 36.6,95.7 27.5,86.6 C19,78.1 12,68.6 8.9,56.7 C5.1,42.2 8.5,29.5 19.1,18.8 C29.9,8 43,4 57.4,8.7 C78.7,15.6 94.2,29.2 101.4,51 C102.9,55.4 103.2,60 103.1,64.5 L103.1,64.5 Z M90.7,91 C90.9,90.9 91,90.7 91.2,90.6 C93.4,89.2 93.2,86.9 93,84.8 C92.8,82.2 93.1,80.3 96.5,81 C97.5,81.2 98.3,80.8 98.3,79.7 C98.3,78.5 97.2,78.8 96.7,78.9 C93.6,79.4 92.6,78.1 93.1,75.2 C93.2,74.6 93.1,74.1 93.1,73.5 C93.1,69 93.1,69.1 97.5,68.9 C98.6,68.9 100.9,70.1 100.8,67.8 C100.8,66 98.7,66.9 97.6,66.9 C93.1,66.8 93.1,66.8 93.1,62.4 C93.1,57.2 93.1,57.3 98.3,57 C99,57 100.2,57.6 100.1,56.1 C100,55 99.2,55 98.2,54.9 C93,54.6 93,54.6 93,49.2 L93,46.9 C92.9,45.7 93.2,44.9 94.7,45 C95.2,45 96.2,45.4 96.1,44.3 C96.1,43.7 95.7,42.9 94.9,43 C92.8,43.2 92.9,41.8 93,40.5 C93.1,38.7 92.6,37.3 90.9,35.9 C90.9,37.9 90.8,39.6 90.9,41.3 C91,42.6 90.4,43 89.1,43.1 C80.9,43.5 80.9,43.5 81,35.5 L81,34.7 C80.8,33.2 81.5,32.7 83,32.8 C84.7,32.9 86.5,32.8 88.4,32.8 C87.8,30.4 86.1,30.5 84.7,30.7 C81.8,31.1 80.6,30.1 81,27.1 C81.2,25.6 81.3,23.8 78.9,23.6 L78.9,26 C78.9,30.8 78.9,30.8 74.2,30.8 C69.1,30.8 69.1,30.8 69.1,25.5 C69.1,20.5 69.1,20.5 73.9,20.1 C74,20.1 74.1,19.9 74.2,19.7 C71.6,17.7 68.8,17.1 66.1,17.9 C65.8,18 65.5,17.9 65.3,17.9 C63.1,17.9 61,17.8 58.8,17.9 C57.5,17.9 57.1,17.4 57.2,16.2 C57.3,15.5 57.2,14.7 57.2,13.9 C57.2,13 57.3,11.8 55.9,11.8 C54.5,11.8 55.1,13 55,13.7 C54.8,17.7 54.9,17.8 50.7,17.7 C49,17.7 46.9,18.2 45.7,17.4 C44.2,16.4 45.4,14.1 45.1,12.4 C45,11.7 45.3,10.8 44.1,10.7 C42.8,10.6 43,11.7 42.9,12.5 C42.5,17.7 42.5,17.7 37.2,17.7 C36.7,17.7 36.2,17.6 35.8,17.7 C33.6,18 32.7,17.2 33,14.9 C33.1,14.3 33.5,13.2 32.3,13.2 C31.5,13.2 30.8,13.8 31,14.7 C31.6,17.8 29.7,17.8 27.5,17.7 C25.6,17.6 23.5,17.2 22.3,19.8 C24.4,19.8 26.2,20 28.1,19.8 C30.5,19.5 31.1,20.5 31.1,22.8 C31,30.6 31.1,30.5 23.2,30.5 C21.2,30.5 20.8,29.8 20.8,28 C20.8,25.8 21.1,23.6 20.5,21.4 C18,22.7 18.7,24.9 18.7,26.8 C18.8,29.3 18.7,31.2 15.4,30.5 C14.4,30.3 13.6,30.8 13.6,31.8 C13.6,32.9 14.8,32.6 15.4,32.5 C18.3,32.1 19.1,33.4 18.7,36 C18.6,36.7 18.7,37.5 18.7,38.3 C18.7,42.9 18.7,42.9 14.2,43 C13.1,43 11.1,42.1 11.1,44 C11.1,46 13.2,45 14.3,45 C18.8,45.1 18.8,45.1 18.8,49.5 L18.8,49.8 C18.8,54.7 18.8,54.7 13.9,54.9 C13.2,54.9 12,54.4 12.1,55.8 C12.1,57 13.1,56.9 13.9,57 C18.8,57.3 18.8,57.4 18.8,62.4 C18.8,63.2 18.7,64.1 18.8,64.9 C18.9,66.1 18.6,67 17.1,66.8 C16.7,66.8 16.1,66.7 16,67.4 C16,68 16.3,68.8 16.8,68.8 C19.3,68.8 18.7,70.5 18.8,71.9 C18.8,73.3 19.6,74.2 20.9,75.6 C20.9,74 21,73.1 20.9,72.2 C20.6,69.8 21.3,68.8 24,68.9 C31.3,69.1 31.3,69 31.1,76.8 C31.1,78.4 30.5,78.9 29,78.9 C27.2,78.9 25.3,78.6 23.4,79.1 C24.9,80.8 24.9,80.8 26.2,80.9 C30.8,81.2 30.9,81.2 31,85.6 C31,87 31.4,87.9 33.1,88.3 L33.1,85.4 C33.1,80.8 33.1,80.8 37.7,80.8 C43,80.8 43,80.8 43,86.2 C43,90.7 43,90.7 38.6,90.8 C37.9,90.8 37.3,90.9 36.4,91 C38.6,92.8 38.6,92.8 40.7,92.8 C42,92.8 43.2,92.6 43.1,94.6 C43.1,95.4 43.8,95.7 44.5,95.7 C45.3,95.7 45.1,94.9 45.1,94.4 C45,93.1 45.7,92.8 46.9,92.9 C48.3,93 49.7,92.9 51.1,92.9 C55,92.9 54.9,92.9 55,96.8 C55,97.9 54.2,99.7 56.1,99.7 C58.1,99.7 57,97.8 57,96.8 C57.2,92.4 56.4,93 61,92.9 C66.6,92.9 66.6,92.9 66.9,98.7 C66.9,99.5 66.6,100.6 67.9,100.6 C69.2,100.7 68.9,99.6 69,98.8 C69.2,96.9 68,94.3 69.6,93.3 C71,92.4 73.4,93 75.4,92.9 L76,92.9 C78.4,92.5 79.2,93.5 78.9,95.9 C78.8,96.6 78.2,98.1 79.7,98.1 C81.1,98.1 81.1,96.8 81,95.8 C80.6,93.2 81.9,92.9 84,93 C86.4,93 89,93.6 90.7,91 L90.7,91 Z" id="Shape" fill="#0E6A31"></path>
                            <g id="Racken">
                                <g id="Group">
                                    <path d="M172.9,102.9 C153.9,102.8 140.4,93.4 136.1,76.9 C133.4,66.5 133.6,55.9 138,46.1 C146.9,26.6 161.9,13.3 182.8,8.3 C209.5,1.9 234,25.7 229.8,52.8 C227,71 206,97.8 183.8,101.8 C180.2,102.6 176.6,103.1 172.9,102.9 L172.9,102.9 Z M146.4,36.2 C144.8,38.3 144.8,38.3 144.8,40.3 C144.8,41.7 145.1,43.2 142.8,43.1 C142.1,43.1 141.7,43.9 141.6,44.5 C141.5,45.4 142.4,45.2 142.8,45.1 C144.7,44.8 144.8,45.9 144.7,47.3 C144.6,48.6 144.7,49.9 144.7,51.3 C144.7,55.6 145.1,54.9 140.9,55 C139.8,55 137.7,54.2 137.8,56.2 C137.9,58 139.8,57 140.8,57 C145.3,57.2 144.7,56.5 144.8,60.9 C144.8,66.7 144.8,66.7 139.1,66.9 C138.3,66.9 137,66.4 137,68 C137,69.3 138.1,69 138.9,69 C144.8,69.3 144.8,69.3 144.8,75.4 L144.8,75.7 C145.2,78.2 144.3,79.3 141.6,79 C140.9,78.9 139.7,78.4 139.6,79.7 C139.5,80.8 140.5,81.3 141.6,81.1 C144.9,80.5 145,82.3 144.9,84.8 C144.8,86.7 144.1,89 147,90.6 C147,87.9 147.1,85.5 147,83.1 C147,81.7 147.4,81.2 148.9,81.1 C157.1,80.6 157.1,80.6 156.9,88.8 L156.9,89.1 C157.1,90.6 156.4,91 155,91 C152.6,90.9 150.2,91 147.6,91 C148.6,93.3 150.3,93.1 152,93.2 C154.6,93.2 158.1,92.2 157,97.1 C156.8,97.9 157.6,98.3 158.2,98.4 C159.3,98.5 159,97.7 159.1,97.1 C159.5,93.3 159.5,93.3 163.4,93.3 C164.4,93.3 165.5,93.4 166.5,93.3 C168.5,93 169.3,93.8 169,95.8 C168.9,96.4 168.9,97 169,97.5 C169.4,98.7 168,100.9 170,101 C172.2,101 171,98.8 171,97.6 C171.2,93.4 171.1,93.4 175.4,93.4 C180.6,93.4 180.6,93.4 180.9,98.5 C180.9,99.2 180.6,100.2 181.7,100.2 C182.9,100.3 183,99.4 183,98.5 C183.1,96.8 182.2,94.5 183.5,93.7 C184.8,92.9 187,93.4 188.7,93.4 L190.7,93.4 C192.1,93.3 193.2,93.4 192.9,95.3 C192.8,95.8 192.9,96.3 193.5,96.3 C193.8,96.3 194.4,96 194.4,95.8 C194.7,92.9 196.8,93.5 198.7,93.3 C199.8,93.2 200.7,92.5 201.7,91.2 C200,91.2 198.5,91.1 197.1,91.2 C195.5,91.3 194.9,90.8 195,89.2 C195.4,79.5 192.9,81.7 202.9,81.4 C204.6,81.3 205,82.1 204.9,83.6 C204.8,85.3 204.9,87 204.9,88.9 C206.6,88.3 207,87.5 207.1,86.2 C207.3,81.6 207.4,81.6 211.8,81.4 C213.2,81.3 214.3,81 214.5,79.2 L211.5,79.2 C207.1,79.2 207.1,79.2 207.1,74.9 C207.1,69.3 207.1,69.3 212.7,69.3 C217.2,69.3 217.2,69.3 217.3,73.7 C217.3,74.2 216.8,75 217.8,75.4 C219,74.3 219.6,73 219.4,71.4 C219.3,70.3 219.3,69.3 220.9,69.3 C221.7,69.3 222.1,68.7 222.1,68 C222.1,67 221.2,67.3 220.7,67.2 C220.2,67.1 219.6,67.2 219.5,66.7 C219.4,63.8 219,60.8 219.7,58 C220,56.6 222.6,57.6 224.1,57.4 L224.9,57.4 C225.7,57.4 226.1,57 226.1,56.2 C226.1,55.2 225.4,55.3 224.7,55.3 C224,55.3 223.4,55.2 222.7,55.3 C219.7,55.9 218.9,54.5 219.3,51.8 C219.5,49.9 218.8,47.4 219.7,46.1 C220.8,44.6 223.4,45.8 225.3,45.6 C226.1,45.5 227.1,45.9 227.1,44.5 C227.1,43.2 226,43.5 225.2,43.4 C223.3,43.2 220.7,44.3 219.6,42.8 C218.7,41.4 219.3,39 219.3,37 L219.3,36.7 C218.9,34.1 219.5,32.5 222.7,33.1 C223.3,33.2 224.4,33.6 224.4,32.4 C224.4,31.6 223.8,30.9 222.9,31.1 C218.6,32 219.4,29 219.3,26.5 C219.3,24.8 219.7,22.9 217.3,21.9 C217.2,22.5 217.2,22.9 217.2,23.4 C216.9,25.9 218.4,29.3 216.5,30.6 C214.8,31.8 211.6,30.8 209.1,31 C207.4,31.1 207,30.3 207.1,28.9 C207.2,26.8 207.2,24.7 207.1,22.7 C207,20.9 207.7,20.4 209.4,20.5 C211.5,20.6 213.6,20.5 215.9,20.5 C214.4,17.9 212.3,18.3 210.4,18.4 C208.3,18.5 206.6,18.5 207.1,15.6 C207.3,14.7 206.8,13.8 205.7,14 C204.5,14.1 205.1,15.2 205,15.8 C204.8,16.7 205.5,18.2 204.4,18.3 C201.5,18.6 198.4,18.9 195.7,18.2 C194.3,17.8 195.4,15.1 195.1,13.5 L195.1,12.7 C195.1,12 194.9,11.4 194,11.4 C193.3,11.4 193.1,11.9 193,12.5 L193,13.9 C192.9,18.5 192.9,18.5 188.4,18.5 L187.8,18.5 C183.3,18.5 183.4,18.5 183.1,14 C183.1,13.4 183.5,12.3 182.2,12.4 C181,12.4 181,13.2 180.9,14.2 C180.6,18.6 180.6,18.6 176.1,18.6 C175.7,18.6 175.3,18.7 175,18.6 C173.6,18.2 171.3,19.9 170.9,16.8 C170.8,16.1 169.4,16.7 169.4,17.1 C169,18.7 167.9,18.6 166.6,18.7 C165.5,18.8 164.4,19.3 163.7,20.6 C168.9,20.8 168.9,20.8 168.9,24 C168.9,31.7 168.9,31.6 161,31.2 C159.5,31.1 159,30.6 159.1,29.2 C159.2,27.5 159.1,25.7 159.1,23.9 C156.9,24.4 156.9,25.8 156.9,27.2 C156.9,31.1 156.9,31.1 153.1,31.1 C151.6,31.1 150,31 149.8,33 C152.1,34.1 155.5,31.7 156.7,34.3 C157.7,36.4 156.9,39.3 156.9,41.8 L156.9,42.4 C156.9,43.2 156.6,43.6 155.7,43.6 C153,43.6 149.9,44.3 147.6,43.2 C145.9,42.4 147.3,39.2 146.9,37.2 C146.8,36.5 146.6,36.5 146.4,36.2 L146.4,36.2 Z" id="Shape" fill="#0E6A31"></path>
                                    <g id="Shape" fill="#FFFFFF">
                                        <g>
                                            <path d="M171.8,110.9 C163.6,110.8 157.2,110 150.8,110.6 C140.1,111.7 131.1,115.9 123.5,123.3 C117.2,129.4 111.1,135.7 105,142 C103.6,143.5 102.7,144 101.1,142.1 C99.3,139.9 97.2,138 95.1,136.1 C93.7,134.9 93.9,134.2 95.1,133 C100.4,127.9 105.5,122.6 110.9,117.6 C123.8,105.7 128.8,91 127,73.8 C124.6,50.7 133.8,32.6 150.8,17.7 C160.5,9.3 171.2,2.7 184.1,1 C218.3,-3.5 245.5,28.2 234.5,61 C226.5,85 210.1,101.7 185.3,109.2 C180.4,110.7 175.2,111 171.8,110.9 L171.8,110.9 Z M172.9,102.9 C176.6,103 180.2,102.6 183.8,101.9 C206,97.9 227,71 229.8,52.9 C234,25.7 209.6,2 182.8,8.4 C161.9,13.4 146.9,26.7 138,46.2 C133.5,56 133.4,66.6 136.1,77 C140.4,93.5 153.9,102.9 172.9,102.9 L172.9,102.9 Z"></path>
                                            <path d="M110.7,73.1 C109.9,83.6 110.5,93.8 115.7,103.3 C116.3,104.4 115.9,105 115.3,105.8 C112.8,109.2 109.9,112.3 106.9,115.3 C106.3,115.9 105.8,116.4 104.7,115.8 C95.1,110.2 84.5,109.3 73.8,110.3 C51.8,112.5 34.3,104.2 19.7,88.3 C11.7,79.6 5.2,70 2.3,58.3 C-6.5,23.4 24.7,-7.3 59.4,1.9 C81.9,7.9 104.5,30.6 109.6,52.5 C111.1,59.4 111.3,66.2 110.7,73.1 L110.7,73.1 Z M103.1,64.5 C103.2,60 102.9,55.4 101.5,51.1 C94.3,29.3 78.7,15.7 57.5,8.8 C43,4.1 29.9,8.1 19.2,18.9 C8.6,29.5 5.2,42.2 9,56.8 C12.1,68.6 19.1,78.1 27.6,86.7 C36.6,95.8 47.3,101.8 60.4,102.7 C70.7,103.4 80.6,102.1 89.1,95.7 C99.3,87.9 103.1,77.1 103.1,64.5 L103.1,64.5 Z"></path>
                                            <path d="M185.4,173 C190.3,178.2 194.6,182.9 198.9,187.5 C200.2,189 199.9,190.7 199,192.2 C197.4,194.8 195.3,196.9 192.7,198.5 C189.4,200.5 185.4,198.2 185.4,194.3 L185.4,173 L185.4,173 Z"></path>
                                            <path d="M64,185.6 C59.3,190 54.7,194.4 49.9,198.7 C48.5,200 46.7,199.5 45.2,198.5 C43,197 41.1,195.2 39.6,193 C38.5,191.5 37.7,189.9 38.8,188 C39.9,186 41.3,184.8 43.9,184.8 C50.5,185 57.2,184.9 63.8,184.9 C63.8,185.2 63.9,185.4 64,185.6 L64,185.6 Z"></path>
                                            <path d="M144.1,134.7 C143.8,135.1 143.5,135.5 143.2,135.8 C140.9,138.1 138.5,140.4 136.2,142.8 C135.2,143.8 134.7,143.7 133.7,142.7 C130.3,139.1 126.9,135.7 123.4,132.2 C122.5,131.3 122.1,130.7 123.3,129.7 C125.7,127.6 128.1,125.5 130.5,123.3 C131.2,122.7 131.8,122.3 132.7,123.2 C136.2,126.7 139.8,130.2 143.4,133.7 C143.7,134 143.9,134.3 144.1,134.7 L144.1,134.7 Z"></path>
                                            <path d="M60,166.4 C62.8,163.4 65.5,160.6 68.2,157.8 C68.5,157.5 69,157.3 69.5,157.3 L91.6,157.3 C88.5,160.5 85.9,163.3 83.2,166 C82.9,166.3 82.3,166.4 81.9,166.4 C74.6,166.4 67.3,166.4 60,166.4 L60,166.4 Z"></path>
                                            <path d="M166.8,177.9 C163.7,174.9 161,172.2 158.2,169.6 C157.8,169.2 157.6,168.7 157.6,168.1 L157.6,146.1 C160.7,149.1 163.4,151.7 166.1,154.2 C166.7,154.8 166.7,155.5 166.7,156.3 C166.8,163.4 166.8,170.4 166.8,177.9 L166.8,177.9 Z"></path>
                                            <path d="M74,152 C78.8,147.5 83.6,143 88.3,138.5 C89.2,137.6 90,137.6 90.9,138.6 C93.5,141.3 96.2,144 98.9,146.6 C99.8,147.5 99.9,148.2 99.1,149.2 C97.4,151.4 95.5,152.9 92.3,152.7 C86.3,152.4 80.3,152.6 74.3,152.6 C74.3,152.4 74.2,152.2 74,152 L74,152 Z"></path>
                                            <path d="M152.3,163.5 C147.9,158.8 143.5,154.1 139,149.4 C137.9,148.2 138.2,147.4 139.2,146.4 C141.8,143.9 144.3,141.4 146.8,138.8 C147.9,137.6 148.7,137.7 149.9,138.7 C152,140.4 153.2,142.1 153.1,145.1 C152.8,151.2 153,157.2 153,163.3 C152.7,163.3 152.5,163.4 152.3,163.5 L152.3,163.5 Z"></path>
                                            <path d="M78,172.1 C75.4,174.5 72.8,176.9 70.2,179.4 C69.5,180 68.8,180.3 67.9,180.3 L45.6,180.3 L54.5,171.4 C54.7,171.2 55,171.2 55.3,171.2 L77.5,171.2 C77.6,171.5 77.8,171.8 78,172.1 L78,172.1 Z"></path>
                                            <path d="M172.5,159.5 C175,162.3 177.5,165 180,167.8 C180.3,168.1 180.6,168.6 180.6,169 L180.6,191.9 C177.4,188.8 174.8,186.2 172.1,183.6 C171.6,183.1 171.5,182.5 171.5,181.8 L171.5,160.1 C171.8,160 172.2,159.7 172.5,159.5 L172.5,159.5 Z"></path>
                                        </g>
                                        <path d="M146.4,36.2 C146.6,36.4 146.8,36.5 146.8,36.6 C147.2,38.7 145.8,41.9 147.5,42.6 C149.8,43.6 152.8,42.9 155.6,43 C156.4,43 156.8,42.6 156.8,41.8 L156.8,41.2 C156.8,38.7 157.6,35.7 156.6,33.7 C155.4,31.2 152,33.5 149.7,32.4 C150,30.4 151.5,30.5 153,30.5 C156.8,30.5 156.8,30.5 156.8,26.6 C156.8,25.1 156.8,23.8 159,23.3 C159,25.1 159.1,26.9 159,28.6 C158.9,30 159.4,30.5 160.9,30.6 C168.8,31 168.8,31 168.8,23.4 C168.8,20.2 168.8,20.2 163.6,20 C164.2,18.7 165.4,18.2 166.5,18.1 C167.7,17.9 168.9,18.1 169.3,16.5 C169.4,16.1 170.8,15.5 170.8,16.2 C171.2,19.3 173.5,17.6 174.9,18 C175.3,18.1 175.7,18 176,18 C180.4,18 180.5,18 180.8,13.6 C180.9,12.7 181,11.9 182.1,11.8 C183.4,11.8 182.9,12.8 183,13.4 C183.3,17.9 183.3,17.9 187.7,17.9 L188.3,17.9 C192.8,17.9 192.8,17.9 192.9,13.3 L192.9,11.9 C192.9,11.3 193.1,10.8 193.9,10.8 C194.8,10.8 195,11.3 195,12.1 L195,12.9 C195.2,14.5 194.1,17.2 195.6,17.6 C198.3,18.3 201.4,18 204.3,17.7 C205.4,17.6 204.8,16.1 204.9,15.2 C205,14.6 204.4,13.5 205.6,13.4 C206.7,13.3 207.2,14.1 207,15 C206.5,17.9 208.2,17.9 210.3,17.8 C212.2,17.7 214.3,17.3 215.8,19.9 C213.5,19.9 211.4,20 209.3,19.9 C207.6,19.8 206.9,20.3 207,22.1 C207.1,24.2 207.1,26.2 207,28.3 C206.9,29.8 207.3,30.6 209,30.4 C211.5,30.2 214.7,31.2 216.4,30 C218.3,28.7 216.8,25.3 217.1,22.8 C217.2,22.4 217.2,21.9 217.2,21.3 C219.6,22.3 219.2,24.2 219.2,25.9 C219.2,28.3 218.4,31.3 222.8,30.5 C223.7,30.3 224.3,31 224.3,31.8 C224.3,33.1 223.2,32.7 222.6,32.5 C219.5,31.9 218.9,33.5 219.2,36.1 L219.2,36.4 C219.3,38.4 218.6,40.8 219.5,42.2 C220.5,43.8 223.2,42.6 225.1,42.8 C225.9,42.9 226.9,42.5 227,43.9 C227.1,45.3 226,44.9 225.2,45 C223.3,45.2 220.6,44.1 219.6,45.5 C218.6,46.8 219.4,49.3 219.2,51.2 C218.9,53.9 219.6,55.3 222.6,54.7 C223.2,54.6 223.9,54.7 224.6,54.7 C225.2,54.7 226,54.7 226,55.6 C226,56.4 225.6,56.8 224.8,56.8 L224,56.8 C222.5,57 219.9,56 219.6,57.4 C219,60.2 219.4,63.2 219.4,66.1 C219.4,66.6 220.1,66.6 220.6,66.6 C221.2,66.7 222.1,66.3 222,67.4 C222,68.1 221.5,68.7 220.8,68.7 C219.2,68.7 219.2,69.7 219.3,70.8 C219.4,72.4 218.9,73.7 217.7,74.8 C216.7,74.5 217.2,73.7 217.2,73.1 C217.1,68.7 217.1,68.7 212.6,68.7 C207,68.7 207,68.7 207,74.3 C207,78.6 207,78.6 211.4,78.6 L214.4,78.6 C214.2,80.4 213.1,80.7 211.7,80.8 C207.3,81 207.3,81 207,85.6 C206.9,86.9 206.6,87.7 204.8,88.3 C204.8,86.4 204.7,84.7 204.8,83 C204.9,81.5 204.5,80.8 202.8,80.8 C192.8,81.1 195.3,78.9 194.9,88.6 C194.8,90.3 195.5,90.8 197,90.6 C198.4,90.5 199.9,90.6 201.6,90.6 C200.7,91.9 199.7,92.6 198.6,92.7 C196.7,92.9 194.6,92.3 194.3,95.2 C194.3,95.4 193.7,95.7 193.4,95.7 C192.8,95.7 192.7,95.1 192.8,94.7 C193.1,92.8 191.9,92.7 190.6,92.8 L188.6,92.8 C186.8,92.8 184.6,92.3 183.4,93.1 C182.1,93.9 183,96.2 182.9,97.9 C182.8,98.8 182.7,99.7 181.6,99.6 C180.4,99.5 180.8,98.5 180.8,97.9 C180.5,92.8 180.5,92.8 175.3,92.8 C171,92.8 171.1,92.8 170.9,97 C170.9,98.1 172.1,100.4 169.9,100.4 C167.9,100.4 169.2,98.1 168.9,96.9 C168.7,96.4 168.8,95.8 168.9,95.2 C169.2,93.2 168.4,92.5 166.4,92.7 C165.4,92.8 164.3,92.7 163.3,92.7 C159.4,92.7 159.4,92.7 159,96.5 C158.9,97.1 159.2,98 158.1,97.8 C157.4,97.7 156.7,97.3 156.9,96.5 C158,91.6 154.5,92.7 151.9,92.6 C150.2,92.6 148.5,92.8 147.5,90.4 C150.1,90.4 152.5,90.3 154.9,90.4 C156.3,90.5 157.1,90.1 156.8,88.5 L156.8,88.2 C157,80 157,80 148.8,80.5 C147.3,80.6 146.9,81.1 146.9,82.5 C147,84.9 146.9,87.3 146.9,90 C144.1,88.5 144.8,86.2 144.8,84.2 C144.9,81.7 144.7,79.9 141.5,80.5 C140.4,80.7 139.5,80.2 139.5,79.1 C139.6,77.8 140.9,78.3 141.5,78.4 C144.1,78.8 145.1,77.7 144.7,75.1 L144.7,74.8 C144.7,68.7 144.7,68.7 138.8,68.4 C138,68.4 136.9,68.7 136.9,67.4 C136.9,65.8 138.2,66.4 139,66.3 C144.8,66.1 144.8,66.1 144.7,60.3 C144.7,55.9 145.3,56.6 140.7,56.4 C139.7,56.4 137.8,57.4 137.7,55.6 C137.6,53.6 139.7,54.4 140.8,54.4 C145,54.3 144.6,55 144.6,50.7 L144.6,46.7 C144.7,45.3 144.5,44.2 142.7,44.5 C142.2,44.6 141.4,44.7 141.5,43.9 C141.6,43.3 141.9,42.4 142.7,42.5 C145,42.6 144.7,41.1 144.7,39.7 C144.8,38.4 144.8,38.4 146.4,36.2 L146.4,36.2 Z M194.8,25.3 C194.8,30.5 194.8,30.5 199.9,30.5 C204.7,30.5 204.7,30.5 204.7,25.5 C204.7,20 204.7,20 199.9,20 C194.8,20.1 194.8,20.1 194.8,25.3 L194.8,25.3 Z M194.8,37.9 C194.8,43 194.8,43 199.1,43 C204.7,43 204.7,43 204.7,37.4 C204.7,32.7 204.7,32.7 200,32.7 C194.8,32.7 194.8,32.7 194.8,37.9 L194.8,37.9 Z M156.7,62.4 C156.7,57.2 156.7,57.2 151.6,57.2 C146.8,57.2 146.8,57.2 146.8,62.1 C146.8,67.1 146.8,67.1 151.9,67.1 C156.7,67 156.7,67 156.7,62.4 L156.7,62.4 Z M146.8,74 C146.8,79.1 146.8,79.1 151.7,79.1 C156.7,79.1 156.7,79.1 156.7,74.1 C156.7,69.2 156.7,69.2 151.7,69.2 C146.8,69.1 146.8,69.1 146.8,74 L146.8,74 Z M187.8,69.1 C182.8,69.1 182.8,69.1 182.8,74.1 L182.8,74.4 C182.8,79.1 182.8,79.1 187.5,79.1 C192.7,79.1 192.7,79.1 192.7,74 C192.7,69.1 192.7,69.1 187.8,69.1 L187.8,69.1 Z M187.9,57.1 C182.8,57.1 182.8,57.1 182.8,62.3 C182.8,67 182.8,67 187.6,67 C192.8,67 192.8,67 192.7,61.8 C192.7,57.1 192.7,57.1 187.9,57.1 L187.9,57.1 Z M204.7,74.1 C204.7,69.1 204.7,69.1 199.7,69.1 C194.8,69.1 194.8,69.1 194.8,74 C194.8,79 194.8,79 199.8,79 C204.7,79 204.7,79 204.7,74.1 L204.7,74.1 Z M204.7,62.2 C204.7,57.1 204.7,57.1 199.5,57.1 C194.8,57.1 194.8,57.1 194.8,61.9 C194.8,67 194.8,67 200,67 C204.7,67 204.7,67 204.7,62.2 L204.7,62.2 Z M211.9,67 C217,67 217,67 217,62.3 C217,57.1 217,57.1 211.7,57.1 C206.9,57.1 206.9,57.1 206.9,62 C206.8,67 206.8,67 211.9,67 L211.9,67 Z M158.9,37.8 C158.9,43 158.9,43 163.4,43 C168.6,43 168.6,43 168.6,37.7 C168.6,32.8 168.6,32.8 163.8,32.8 C158.9,32.7 158.9,32.7 158.9,37.8 L158.9,37.8 Z M180.6,37.8 C180.6,32.7 180.6,32.7 176.5,32.7 C170.8,32.7 170.8,32.7 170.8,38.4 C170.8,42.9 170.8,42.9 175.4,42.9 C180.6,43 180.6,43 180.6,37.8 L180.6,37.8 Z M192.7,37.9 C192.7,32.8 192.7,32.8 188.4,32.8 C182.8,32.8 182.8,32.8 182.8,38.4 C182.8,43.1 182.8,43.1 187.5,43.1 C192.7,43 192.7,43 192.7,37.9 L192.7,37.9 Z M170.8,74 C170.8,79 170.8,79 175.7,79 C180.6,79 180.6,79 180.6,74.1 C180.6,69.1 180.6,69.1 175.6,69.1 C170.8,69.1 170.8,69.1 170.8,74 L170.8,74 Z M212.1,32.7 C206.8,32.7 206.8,32.7 206.8,37.9 L206.8,38.2 C206.8,43 206.8,43 211.7,43 C216.9,43 216.9,43 216.9,37.6 C216.9,32.7 216.9,32.7 212.1,32.7 L212.1,32.7 Z M168.7,62.3 C168.7,57.2 168.7,57.2 163.5,57.2 C158.9,57.2 158.9,57.2 158.9,61.8 C158.9,67 158.9,67 164,67 C168.7,67 168.7,67 168.7,62.3 L168.7,62.3 Z M180.6,25.4 C180.6,24.5 180.5,23.5 180.6,22.6 C180.8,20.7 180.2,19.8 178.2,20.1 C177.7,20.2 177.1,20.1 176.5,20.1 C170.8,20.1 170.8,20.1 170.8,25.8 C170.8,30.6 170.8,30.6 175.4,30.6 C180.6,30.5 180.6,30.5 180.6,25.4 L180.6,25.4 Z M204.7,50.2 C204.7,45.2 204.7,45.2 199.7,45.2 L199.4,45.2 C194.8,45.2 194.8,45.2 194.8,50 C194.8,55.1 194.8,55.1 199.8,55.1 C204.7,55 204.7,55 204.7,50.2 L204.7,50.2 Z M175.9,57.1 C170.9,57.1 170.9,57.1 170.9,62.1 L170.9,62.4 C170.9,67 170.9,67 175.5,67 C180.7,67 180.7,67 180.7,61.8 C180.7,57.1 180.7,57.1 175.9,57.1 L175.9,57.1 Z M192.7,25.3 C192.7,20 192.7,20 188.2,20.1 C182.8,20.1 182.8,20.1 182.8,25.9 C182.8,30.6 182.8,30.6 187.3,30.6 C192.7,30.5 192.7,30.5 192.7,25.3 L192.7,25.3 Z M168.7,74.3 C168.7,69.1 168.7,69.1 163.6,69.1 C158.9,69.1 158.9,69.1 158.9,73.8 C158.9,79 158.9,79 164,79 C168.7,79 168.7,79 168.7,74.3 L168.7,74.3 Z M187.7,45.2 C182.8,45.2 182.8,45.2 182.8,50 C182.8,55 182.8,55 187.8,55 C192.7,55 192.7,55 192.7,50.2 C192.7,45.2 192.7,45.2 187.7,45.2 L187.7,45.2 Z M212,45.2 C206.8,45.2 206.8,45.2 206.8,49.8 C206.8,55.1 206.8,55.1 212.1,55.1 C216.9,55.1 216.9,55.1 217,50.3 C217,45.2 217,45.2 212,45.2 L212,45.2 Z M182.8,86 C182.8,91 182.8,91 187.8,91 L188.1,91 C192.7,91 192.7,91 192.7,86.2 C192.7,81.1 192.7,81.1 187.7,81.1 C182.8,81.2 182.8,81.2 182.8,86 L182.8,86 Z M180.6,86.2 C180.6,81.2 180.6,81.2 175.6,81.2 L175.3,81.2 C170.8,81.2 170.8,81.2 170.8,85.8 C170.8,90.9 170.8,90.9 175.9,91 C180.6,91 180.6,91 180.6,86.2 L180.6,86.2 Z M170.9,50 C170.9,55 170.9,55 175.6,55 C180.6,55 180.6,55 180.6,50 C180.6,45.2 180.6,45.2 175.7,45.2 C170.9,45.2 170.9,45.2 170.9,50 L170.9,50 Z M168.7,50.1 C168.7,45.2 168.7,45.2 163.9,45.2 L163.6,45.2 C158.9,45.2 158.9,45.2 158.9,50 C158.9,55 158.9,55 163.9,55 C168.7,55 168.7,55 168.7,50.1 L168.7,50.1 Z M163.6,91 C168.6,91 168.6,91 168.6,86.1 L168.6,85.8 C168.6,81.2 168.6,81.2 164,81.2 C158.8,81.2 158.8,81.2 158.8,86.3 C158.9,91 158.9,91 163.6,91 L163.6,91 Z M156.7,50.2 C156.7,45.2 156.7,45.2 151.7,45.2 L151.4,45.2 C146.7,45.2 146.7,45.2 146.8,50 C146.8,55 146.8,55 151.8,55 C156.7,55 156.7,55 156.7,50.2 L156.7,50.2 Z"></path>
                                    </g>
                                </g>
                                <path d="M90.7,91 C89.1,93.6 86.4,93 84.1,92.9 C81.9,92.8 80.6,93.2 81.1,95.7 C81.3,96.7 81.2,98.1 79.8,98 C78.3,98 78.9,96.5 79,95.8 C79.3,93.5 78.5,92.4 76.1,92.8 L75.5,92.8 C73.5,92.9 71.1,92.3 69.7,93.2 C68.1,94.2 69.3,96.8 69.1,98.7 C69,99.5 69.3,100.6 68,100.5 C66.7,100.4 67,99.4 67,98.6 C66.7,92.8 66.7,92.8 61.1,92.8 C56.5,92.8 57.3,92.3 57.1,96.7 C57.1,97.7 58.1,99.6 56.2,99.6 C54.3,99.6 55.1,97.7 55.1,96.7 C55,92.8 55,92.8 51.2,92.8 L47,92.8 C45.9,92.8 45.2,93 45.2,94.3 C45.2,94.8 45.4,95.6 44.6,95.6 C43.9,95.6 43.2,95.3 43.2,94.5 C43.3,92.6 42,92.8 40.8,92.7 C38.8,92.7 38.8,92.6 36.5,90.9 C37.4,90.8 38.1,90.7 38.7,90.7 C43.1,90.6 43.1,90.6 43.1,86.1 C43.1,80.7 43.1,80.7 37.8,80.7 C33.2,80.7 33.2,80.7 33.2,85.3 L33.2,88.2 C31.5,87.8 31.1,86.8 31.1,85.5 C31,81 30.9,81 26.3,80.8 C24.9,80.7 24.9,80.7 23.5,79 C25.4,78.5 27.3,78.7 29.1,78.8 C30.7,78.8 31.2,78.4 31.2,76.7 C31.4,68.9 31.5,69 24.1,68.8 C21.4,68.7 20.7,69.7 21,72.1 C21.1,73 21,73.9 21,75.5 C19.7,74.1 18.9,73.2 18.9,71.8 C18.9,70.4 19.4,68.7 16.9,68.7 C16.4,68.7 16.1,67.9 16.1,67.3 C16.2,66.7 16.7,66.7 17.2,66.7 C18.7,66.9 18.9,66 18.9,64.8 C18.8,64 18.9,63.1 18.9,62.3 C18.9,57.3 18.9,57.3 14,56.9 C13.1,56.8 12.2,56.9 12.2,55.7 C12.2,54.2 13.4,54.8 14,54.8 C18.9,54.6 18.9,54.6 18.9,49.7 L18.9,49.4 C18.9,44.9 18.9,45 14.4,44.9 C13.3,44.9 11.2,45.9 11.2,43.9 C11.2,42 13.2,42.9 14.3,42.9 C18.8,42.8 18.8,42.8 18.8,38.2 C18.8,37.4 18.7,36.7 18.8,35.9 C19.2,33.3 18.4,32 15.5,32.4 C14.9,32.5 13.8,32.8 13.7,31.7 C13.7,30.7 14.5,30.2 15.5,30.4 C18.8,31.1 18.9,29.1 18.8,26.7 C18.7,24.8 18.1,22.6 20.6,21.3 C21.2,23.5 20.9,25.8 20.9,27.9 C20.9,29.6 21.3,30.4 23.3,30.4 C31.2,30.5 31.1,30.6 31.2,22.7 C31.2,20.4 30.7,19.4 28.2,19.7 C26.4,19.9 24.5,19.7 22.4,19.7 C23.7,17.1 25.8,17.5 27.6,17.6 C29.8,17.7 31.6,17.7 31.1,14.6 C30.9,13.7 31.6,13.1 32.4,13.1 C33.7,13.1 33.2,14.2 33.1,14.8 C32.8,17.1 33.7,17.9 35.9,17.6 C36.4,17.5 36.8,17.6 37.3,17.6 C42.6,17.6 42.6,17.6 43,12.4 C43.1,11.6 42.8,10.6 44.2,10.6 C45.3,10.7 45.1,11.6 45.2,12.3 C45.5,14 44.3,16.3 45.8,17.3 C47,18.1 49.1,17.5 50.8,17.6 C55,17.6 54.9,17.6 55.1,13.6 C55.1,12.9 54.6,11.7 56,11.7 C57.4,11.7 57.3,12.8 57.3,13.8 L57.3,16.1 C57.2,17.3 57.6,17.8 58.9,17.8 C61.1,17.7 63.2,17.8 65.4,17.8 L66.2,17.8 C68.9,17 71.7,17.6 74.3,19.6 C74.2,19.7 74.1,19.9 74,20 C69.2,20.3 69.2,20.3 69.2,25.4 C69.2,30.7 69.2,30.7 74.3,30.7 C79,30.7 79,30.7 79,25.9 L79,23.5 C81.4,23.8 81.3,25.6 81.1,27 C80.7,30 81.9,31 84.8,30.6 C86.2,30.4 87.9,30.3 88.5,32.7 C86.6,32.7 84.9,32.8 83.1,32.7 C81.6,32.6 81,33.1 81.1,34.6 L81.1,35.4 C81,43.5 81,43.5 89.2,43 C90.5,42.9 91.1,42.6 91,41.2 C90.9,39.5 91,37.9 91,35.8 C92.8,37.2 93.3,38.7 93.1,40.4 C93,41.7 92.9,43.1 95,42.9 C95.8,42.8 96.2,43.6 96.2,44.2 C96.3,45.3 95.3,45 94.8,44.9 C93.3,44.8 93,45.6 93.1,46.8 C93.2,47.5 93.1,48.3 93.1,49.1 C93.1,54.4 93.1,54.4 98.3,54.8 C99.2,54.9 100.1,54.9 100.2,56 C100.3,57.5 99,56.9 98.4,56.9 C93.2,57.2 93.2,57.1 93.2,62.3 C93.2,66.7 93.2,66.6 97.7,66.8 C98.8,66.8 100.9,65.9 100.9,67.7 C100.9,70 98.7,68.8 97.6,68.8 C93.2,69 93.2,68.9 93.2,73.4 C93.2,74 93.3,74.5 93.2,75.1 C92.7,78 93.7,79.3 96.8,78.8 C97.4,78.7 98.5,78.4 98.4,79.6 C98.4,80.6 97.6,81 96.6,80.9 C93.2,80.2 92.9,82.1 93.1,84.7 C93.3,86.8 93.5,89.1 91.3,90.5 C90.7,87.9 91.2,85.3 91.1,82.7 C91.1,81.4 90.7,81 89.3,80.9 C81.2,80.4 80.6,80.9 81.1,89.1 C81.2,90.4 81.6,90.9 82.9,90.9 C85.4,90.8 88,90.9 90.7,91 L90.7,91 Z M30.9,37.5 C30.9,32.4 30.9,32.4 26,32.4 C20.7,32.4 20.7,32.4 20.7,37.7 C20.7,42.8 20.7,42.8 25.6,42.8 C31,42.8 31,42.8 30.9,37.5 L30.9,37.5 Z M54.9,25.3 C54.9,19.8 54.9,19.8 50.6,19.8 C45,19.8 45,19.8 45,25.6 C45,30.4 45,30.4 49.7,30.4 C54.9,30.4 54.9,30.4 54.9,25.3 L54.9,25.3 Z M45.1,37.6 C45.1,42.8 45.1,42.8 49.6,42.8 C55,42.8 55,42.8 55,37.3 C55,32.4 55,32.4 50.2,32.4 C45.1,32.5 45.1,32.5 45.1,37.6 L45.1,37.6 Z M33,24.9 C33,30.3 33,30.3 38.2,30.3 C42.9,30.3 42.9,30.3 42.9,25 C42.9,19.7 42.9,19.7 37.9,19.7 C33,19.8 33,19.8 33,24.9 L33,24.9 Z M33,37.6 C33,42.9 33,42.9 37.4,42.9 C42.9,42.9 42.9,42.9 42.9,37.3 C42.9,32.6 42.9,32.6 38.2,32.5 C33,32.4 33,32.4 33,37.6 L33,37.6 Z M66.9,25.2 C66.9,19.8 66.9,19.8 62.2,19.8 C57.1,19.8 57.1,19.8 57.1,25.3 C57.1,30.4 57.1,30.4 61.8,30.4 C66.9,30.4 66.9,30.4 66.9,25.2 L66.9,25.2 Z M50.2,80.9 C45.1,80.9 45.1,80.9 45.1,86.1 C45.1,90.8 45.1,90.8 49.9,90.8 C55,90.8 55,90.8 55,85.6 C54.9,80.9 54.9,80.9 50.2,80.9 L50.2,80.9 Z M25.8,54.8 C31,54.8 31,54.8 31,50.3 C31,45 31,45 25.7,45 C20.8,45 20.8,45 20.8,49.8 C20.8,54.8 20.8,54.8 25.8,54.8 L25.8,54.8 Z M25.8,66.8 C30.9,66.8 30.9,66.8 31,62.2 C31,57 31,57 25.7,57 C20.8,57 20.8,57 20.8,61.8 C20.8,66.8 20.8,66.8 25.8,66.8 L25.8,66.8 Z M38.2,68.9 C33.1,68.9 33.1,68.9 33.1,74.1 C33.1,78.8 33.1,78.8 37.9,78.8 C43,78.8 43,78.8 43,73.6 C43,68.9 43,68.9 38.2,68.9 L38.2,68.9 Z M54.9,73.8 C54.9,68.9 54.9,68.9 50,68.9 C45,68.9 45,68.9 45,73.9 C45,78.8 45,78.8 49.9,78.8 C54.9,78.8 54.9,78.8 54.9,73.8 L54.9,73.8 Z M90.9,74 C90.9,68.9 90.9,68.9 85.7,68.9 C81,68.9 81,68.9 81,73.7 C81,78.8 81,78.8 86.2,78.8 C90.9,78.8 90.9,78.8 90.9,74 L90.9,74 Z M66.9,38.1 C66.9,32.5 66.9,32.5 62.2,32.5 C57.1,32.5 57.1,32.5 57.1,37.7 C57.1,42.9 57.1,42.9 62.2,42.9 C66.9,42.8 66.9,42.8 66.9,38.1 L66.9,38.1 Z M69,37.8 C69,38.6 69.1,39.5 69,40.3 C68.8,42.2 69.4,43.1 71.4,42.8 C71.9,42.7 72.5,42.8 73.1,42.8 C78.8,42.8 78.8,42.8 78.8,37.1 C78.8,32.5 78.8,32.5 74.3,32.5 C69,32.5 69,32.5 69,37.8 L69,37.8 Z M69,85.7 C69,90.8 69,90.8 74.2,90.8 C78.8,90.8 78.8,90.8 78.8,86.1 C78.8,80.8 78.8,80.8 73.7,80.8 C69,80.9 69,80.9 69,85.7 L69,85.7 Z M37.8,66.8 C42.9,66.8 42.9,66.8 42.9,61.6 C42.9,57 42.9,57 38.1,57 C33,57 33,57 33,62.1 C33.1,66.8 33.1,66.8 37.8,66.8 L37.8,66.8 Z M37.8,54.8 C42.9,54.8 42.9,54.8 42.9,49.7 C42.9,45 42.9,45 38.1,45 C33,45 33,45 33,50.2 C33.1,54.8 33.1,54.8 37.8,54.8 L37.8,54.8 Z M66.9,85.8 C66.9,80.9 66.9,80.9 62,80.9 C57.1,80.9 57.1,80.9 57,85.9 C57,90.8 57,90.8 61.8,90.8 C66.9,90.8 66.9,90.8 66.9,85.8 L66.9,85.8 Z M78.9,73.8 C78.9,69 78.9,69 74,69 C69,69 69,69 69,74 C69,78.8 69,78.8 73.9,78.8 C78.9,78.8 78.9,78.8 78.9,73.8 L78.9,73.8 Z M57.1,73.8 C57.1,78.8 57.1,78.8 62,78.8 C66.9,78.8 66.9,78.8 66.9,73.9 C66.9,68.9 66.9,68.9 61.9,68.9 C57.1,68.9 57.1,68.9 57.1,73.8 L57.1,73.8 Z M85.8,66.8 C90.8,66.8 90.8,66.8 90.8,61.9 C90.8,57.1 90.8,57.1 86,57 C81,57 81,57 81,61.9 C81,66.8 81,66.8 85.8,66.8 L85.8,66.8 Z M74.1,57 C69.1,57 69.1,57 69.1,61.9 L69.1,62.2 C69.1,66.7 69.1,66.7 73.7,66.7 C78.9,66.7 78.9,66.7 78.9,61.6 C78.8,57 78.8,57 74.1,57 L74.1,57 Z M62,66.7 C66.9,66.7 66.9,66.7 66.9,61.9 L66.9,61.6 C66.9,56.9 66.9,56.9 62.1,56.9 C57.1,56.9 57.1,56.9 57.1,61.9 C57.1,66.7 57.1,66.7 62,66.7 L62,66.7 Z M54.9,62 C54.9,56.9 54.9,56.9 49.7,56.9 C45,56.9 45,56.9 45,61.6 C45,66.7 45,66.7 50.2,66.7 C54.9,66.8 54.9,66.8 54.9,62 L54.9,62 Z M61.8,54.8 C66.9,54.8 66.9,54.8 66.9,49.9 L66.9,49.6 C66.9,45 66.9,45 62.3,45 C57.1,45 57.1,45 57.1,50.1 C57.1,54.8 57.1,54.8 61.8,54.8 L61.8,54.8 Z M86.1,45 C81,45 81,45 81,50.2 C81,54.8 81,54.8 85.8,54.9 C90.9,54.9 90.9,54.9 90.9,49.8 C90.9,45 90.9,45 86.1,45 L86.1,45 Z M73.8,54.8 C78.9,54.8 78.9,54.8 78.9,49.6 C78.9,45 78.9,45 74.3,45 C69.1,45 69.1,45 69.1,50.1 C69.1,54.8 69.1,54.8 73.8,54.8 L73.8,54.8 Z M49.9,54.8 C55,54.8 55,54.8 55,49.6 C55,44.9 55,44.9 50.2,44.9 C45.1,44.9 45.1,44.9 45.1,49.8 C45,54.8 45,54.8 49.9,54.8 L49.9,54.8 Z" id="Shape" fill="#FFFFFF"></path>
                            </g>
                        </g>
                        <g transform="translate(41.000000, 35.000000)" id="Shape">
                            <g transform="translate(20.000000, 0.000000)" fill="#FFFFFF">
                                <polygon points="46.5 164.8 0.3 136.3 6.1 127 24.3 138.2 35.6 119.9 17.4 108.7 23.2 99.4 69.4 127.9 63.6 137.2 43.4 124.7 32 143 52.2 155.5"></polygon>
                                <path d="M53.5,62.2 L47.8,55.3 L54.7,49.7 L60.4,56.6 L53.5,62.2 L53.5,62.2 Z M62.6,94.3 C59.1,90 56.8,85.9 55.7,81.9 C54.9,79 54.6,76 54.9,73 C55.2,70 56,67.2 57.3,64.8 C59,61.5 61.6,58.5 65,55.7 C71.2,50.6 77.7,48.5 84.6,49.3 C91.5,50.1 97.7,53.9 103.3,60.8 C108.8,67.6 111.3,74.4 110.8,81.3 C110.2,88.1 106.9,94.1 100.7,99.2 C94.4,104.3 87.9,106.5 81.1,105.6 C74.2,104.7 68,101 62.6,94.3 L62.6,94.3 Z M65.8,52.1 L60.1,45.2 L67.1,39.5 L72.8,46.4 L65.8,52.1 L65.8,52.1 Z M71,86.8 C74.9,91.6 79,94.3 83.2,95 C87.4,95.7 91.2,94.6 94.6,91.8 C98,89.1 99.7,85.6 99.9,81.3 C100.1,77.1 98.2,72.5 94.2,67.7 C90.3,62.9 86.3,60.1 82.2,59.5 C78.2,58.9 74.4,60 70.9,62.8 C67.4,65.7 65.5,69.2 65.3,73.3 C65.2,77.5 67.1,82 71,86.8 L71,86.8 Z"></path>
                                <path d="M151.2,47.2 L148.2,38.6 L170.5,30.7 L177.7,51.1 C176.3,54 173.8,57 170.2,60 C166.6,63 162.8,65.3 158.6,66.8 C153.2,68.7 148.2,69.2 143.4,68.4 C138.6,67.6 134.5,65.4 131,61.9 C127.5,58.4 124.9,54.2 123.2,49.3 C121.3,44 120.8,38.8 121.5,33.9 C122.3,29 124.4,24.6 127.9,20.9 C130.6,18 134.4,15.7 139.2,14 C145.6,11.8 151,11.3 155.5,12.7 C160,14.1 163.6,17 166.3,21.4 L156.7,26.9 C155.1,24.6 153,23.1 150.5,22.4 C148,21.7 145.2,21.8 142.2,22.9 C137.7,24.5 134.6,27.2 133,31 C131.3,34.8 131.5,39.5 133.5,45.2 C135.6,51.3 138.6,55.4 142.4,57.5 C146.2,59.6 150.2,59.9 154.6,58.3 C156.8,57.5 158.8,56.3 160.7,54.7 C162.6,53.1 164.1,51.4 165.2,49.6 L162.9,43.1 L151.2,47.2 L151.2,47.2 Z"></path>
                                <polygon points="198 56.2 196.6 1.9 236.9 0.9 237.1 10.1 207.8 10.9 208.1 23 235.4 22.3 235.6 31.4 208.3 32 208.7 46.8 239 46 239.2 55.2"></polygon>
                                <polygon points="256.3 58.3 271.3 6.5 281.8 9.6 269.4 52.6 295.6 60.2 293.1 69"></polygon>
                                <polygon points="308.3 77.3 334.9 29.9 344.5 35.3 317.9 82.7"></polygon>
                                <path d="M372.3,53.3 L386.8,67.1 C390.1,70.2 392.4,72.8 393.6,75 C395.2,77.9 396.1,81 396.1,84.3 C396.1,87.6 395.3,90.9 393.8,94.3 C392.3,97.6 389.8,101.1 386.3,104.8 C383.2,108.1 380.2,110.5 377.1,112.1 C373.4,114 369.8,115 366.3,115 C363.6,115 360.8,114.3 357.7,112.9 C355.4,111.8 352.8,109.8 349.9,107.1 L334.9,92.9 L372.3,53.3 L372.3,53.3 Z M373.9,67.5 L349.2,93.6 L355.1,99.2 C357.3,101.3 359.1,102.7 360.3,103.4 C361.9,104.3 363.5,104.8 365.1,104.8 C366.7,104.8 368.6,104.2 370.8,103 C373,101.7 375.6,99.6 378.5,96.5 C381.4,93.4 383.3,90.8 384.3,88.7 C385.3,86.6 385.8,84.6 385.7,82.7 C385.6,80.9 385,79.1 383.8,77.3 C382.9,76 380.9,73.8 377.6,70.7 L373.9,67.5 L373.9,67.5 Z"></path>
                                <path d="M392.1,126.9 L398.1,135.8 C395.3,138.1 393.6,140.5 393,143 C392.5,145.5 393,148.3 394.6,151.2 C396.3,154.3 398.2,156.3 400.4,157.2 C402.6,158.1 404.5,158 406.3,157.1 C407.4,156.5 408.2,155.6 408.6,154.5 C409,153.4 409.1,151.9 408.8,149.9 C408.6,148.6 407.9,145.6 406.7,141.1 C405.2,135.2 404.7,130.8 405.5,127.7 C406.5,123.3 409,120.1 412.7,118 C415.1,116.7 417.8,116.1 420.6,116.4 C423.5,116.6 426.2,117.7 428.7,119.7 C431.2,121.7 433.5,124.5 435.5,128.2 C438.8,134.2 439.9,139.4 438.9,143.9 C437.9,148.4 435.3,151.8 431,154.4 L425.3,145 C427.5,143.3 428.8,141.4 429.2,139.5 C429.5,137.6 429,135.2 427.5,132.5 C426,129.7 424.2,127.8 422.2,126.8 C420.9,126.2 419.7,126.2 418.4,126.9 C417.3,127.5 416.6,128.5 416.3,129.9 C416,131.7 416.5,135.2 417.9,140.5 C419.3,145.8 420.1,149.9 420.1,152.8 C420.1,155.7 419.5,158.3 418.1,160.7 C416.7,163.1 414.5,165.1 411.5,166.7 C408.8,168.2 405.8,168.8 402.6,168.6 C399.4,168.4 396.4,167.2 393.8,165.1 C391.1,163 388.7,159.8 386.4,155.7 C383.1,149.7 382,144.3 383,139.5 C384,134.6 387,130.5 392.1,126.9 L392.1,126.9 Z"></path>
                            </g>
                            <g transform="translate(4.000000, 281.000000)" fill="#FFFFFF">
                                <polygon points="0.2 31 43 18 38.4 2.7 47.1 0 59.5 40.9 50.8 43.6 46.2 28.3 3.4 41.3"></polygon>
                                <polygon points="16.4 75 62.4 47.1 83.1 81.2 75.3 85.9 60.2 61.1 50 67.3 64 90.4 56.3 95.1 42.3 72 29.8 79.6 45.4 105.3 37.6 110"></polygon>
                                <polygon points="52.1 127.9 89.1 88.8 96.8 96.1 88.1 137.4 112.8 111.3 120.1 118.2 83.1 157.3 75.2 149.8 83.5 109.4 59.4 134.9"></polygon>
                                <polygon points="103.9 172.1 128.8 124.4 138.2 129.3 141.2 171.4 157.8 139.5 166.8 144.2 141.9 191.9 132.2 186.9 129.2 145.8 113 176.9"></polygon>
                                <polygon points="163.7 198.8 178.4 147 188.9 150 174.2 201.8"></polygon>
                                <path d="M194.2,189.4 L204.8,189.3 C205.1,192.9 206.2,195.6 208,197.4 C209.8,199.2 212.3,200.3 215.6,200.6 C219.1,200.9 221.8,200.4 223.7,199.1 C225.6,197.8 226.6,196.1 226.8,194.1 C226.9,192.8 226.6,191.7 226,190.8 C225.3,189.8 224.1,188.9 222.3,188.1 C221.1,187.6 218.3,186.5 213.9,185 C208.2,183.1 204.3,181 202.1,178.7 C199,175.5 197.7,171.7 198.1,167.4 C198.3,164.7 199.3,162.2 201.1,159.9 C202.9,157.6 205.2,156 208.3,155 C211.3,154 214.9,153.7 219,154 C225.7,154.6 230.7,156.5 233.8,159.7 C236.9,163 238.4,167 238.1,172 L227.2,171.6 C227,168.8 226.2,166.7 224.7,165.4 C223.2,164.1 221,163.3 218,163 C214.8,162.7 212.3,163.2 210.4,164.3 C209.2,165 208.5,166.1 208.4,167.5 C208.3,168.8 208.7,169.9 209.7,170.9 C211,172.1 214.2,173.6 219.3,175.3 C224.5,177 228.2,178.6 230.7,180.2 C233.1,181.7 234.9,183.7 236.2,186.2 C237.4,188.6 237.9,191.5 237.6,194.9 C237.3,198 236.2,200.8 234.3,203.3 C232.4,205.8 229.8,207.6 226.6,208.7 C223.4,209.7 219.4,210.1 214.8,209.7 C208,209.1 203,207.1 199.6,203.7 C196.1,200.2 194.4,195.5 194.2,189.4 L194.2,189.4 Z"></path>
                                <polygon points="259.2 209.5 249.5 156.5 260.1 154.6 264.4 178.1 281.7 150.6 296.1 148 280 172.3 307 200.8 293.2 203.3 274 181.1 267 191.6 269.9 207.6"></polygon>
                                <polygon points="325 193.6 302.2 145.4 312 140.8 330.9 180.8 355.3 169.2 359.2 177.4"></polygon>
                                <path d="M342.4,124.9 L350.7,117.9 L369.5,140.2 C372.5,143.7 374.5,145.9 375.6,146.8 C377.4,148.2 379.4,148.8 381.6,148.7 C383.8,148.6 386.1,147.6 388.4,145.6 C390.8,143.6 392.1,141.6 392.5,139.7 C392.9,137.7 392.6,135.9 391.7,134.3 C390.8,132.7 388.9,130.3 386.2,127 L367,104.2 L375.3,97.2 L393.5,118.8 C397.7,123.7 400.4,127.4 401.7,129.8 C403,132.2 403.6,134.6 403.6,137 C403.6,139.4 402.9,141.9 401.6,144.4 C400.3,146.9 398,149.6 394.7,152.3 C390.8,155.6 387.4,157.7 384.6,158.4 C381.8,159.1 379.2,159.4 376.8,158.9 C374.4,158.5 372.3,157.6 370.7,156.3 C368.1,154.4 364.9,151.1 361.1,146.5 L342.4,124.9 L342.4,124.9 Z"></path>
                                <path d="M382.3,89.5 L394.3,71.7 C396.7,68.2 398.6,65.6 400.1,64.1 C401.6,62.6 403.2,61.4 405.1,60.7 C407,60 409,59.7 411.1,59.8 C413.3,59.9 415.3,60.7 417.2,62 C419.3,63.4 420.8,65.2 421.8,67.5 C422.8,69.8 423.1,72.2 422.6,74.7 C425.2,72.5 428,71.3 430.9,71.2 C433.8,71 436.5,71.8 439.1,73.6 C441.1,75 442.8,76.8 444,79 C445.3,81.2 446,83.6 446,86 C446,88.4 445.4,90.9 444,93.5 C443.2,95.1 440.8,98.8 437,104.5 L426.7,119.7 L382.3,89.5 L382.3,89.5 Z M395.8,85.5 L406.1,92.5 L410.1,86.6 C412.5,83.1 413.9,80.9 414.3,79.9 C415.2,78.2 415.5,76.7 415.2,75.2 C414.9,73.7 414,72.5 412.6,71.5 C411.2,70.6 409.8,70.2 408.4,70.4 C407,70.6 405.7,71.4 404.6,72.8 C403.9,73.6 402.1,76.1 399.2,80.4 L395.8,85.5 L395.8,85.5 Z M413.6,97.4 L425.5,105.5 L431.2,97.1 C433.4,93.9 434.7,91.8 435.1,90.8 C435.7,89.3 435.9,87.8 435.5,86.3 C435.1,84.8 434.2,83.5 432.6,82.5 C431.2,81.6 429.9,81.1 428.5,81.2 C427.1,81.2 425.8,81.7 424.6,82.6 C423.3,83.5 421.3,86.1 418.5,90.2 L413.6,97.4 L413.6,97.4 Z"></path>
                                <path d="M411,44.5 L417.7,24 C419,19.9 420.2,17 421.2,15.1 C422.2,13.2 423.5,11.7 425.1,10.5 C426.7,9.3 428.5,8.4 430.7,8 C432.8,7.5 435,7.7 437.2,8.4 C439.6,9.2 441.5,10.5 443.1,12.5 C444.7,14.4 445.6,16.7 445.9,19.2 C447.8,16.4 450.2,14.5 452.9,13.5 C455.6,12.5 458.5,12.5 461.4,13.5 C463.7,14.3 465.8,15.5 467.6,17.3 C469.5,19.1 470.7,21.2 471.4,23.5 C472.1,25.8 472.2,28.4 471.6,31.2 C471.2,33 470,37.2 467.9,43.7 L462.2,61.2 L411,44.5 L411,44.5 Z M422.9,37 L434.7,40.9 L436.9,34.1 C438.2,30.1 439,27.5 439.1,26.5 C439.5,24.6 439.3,23.1 438.6,21.7 C437.9,20.4 436.7,19.4 435.1,18.9 C433.5,18.4 432.1,18.4 430.8,19 C429.5,19.6 428.5,20.7 427.8,22.3 C427.3,23.3 426.3,26.2 424.7,31.1 L422.9,37 L422.9,37 Z M443.2,43.6 L456.9,48.1 L460,38.5 C461.2,34.8 461.9,32.4 462,31.3 C462.2,29.7 461.9,28.2 461.2,26.9 C460.4,25.6 459.2,24.6 457.3,24 C455.7,23.5 454.3,23.4 453,23.8 C451.7,24.2 450.6,25 449.6,26.3 C448.6,27.5 447.4,30.5 445.9,35.2 L443.2,43.6 L443.2,43.6 Z"></path>
                            </g>
                            <g transform="translate(0.000000, 203.000000)" stroke="#FFFFFF" fill="#F3E600">
                                <path d="M5.1,36.5 C-0.3,29.8 -0.9,18.7 3.8,11.9 C4.7,10.5 5.3,10.3 6.6,11.5 C16.1,20.1 31.8,20.2 41.3,11.5 C42.9,10 43.6,10.8 44.3,12.2 C48.3,19.8 48.3,27.4 44.2,35 C43.5,36.2 43.1,36.8 41.5,35.7 C27.8,26.3 18.9,26.6 5.1,36.5 L5.1,36.5 Z"></path>
                                <path d="M9.9,41.5 C17.6,33.3 30.1,33.3 37.9,41.5 C30.3,49 16,48 9.9,41.5 L9.9,41.5 Z"></path>
                                <path d="M23,0.3 C28.6,0.3 32.7,1.6 36.5,4 C38.1,5 38.1,5.7 36.7,7 C30.1,13 18.1,13 11.3,7.1 C9.6,5.6 9.9,4.8 11.7,3.8 C15.5,1.6 19.5,0.2 23,0.3 L23,0.3 Z"></path>
                            </g>
                            <g transform="translate(434.000000, 203.000000)" stroke="#FFFFFF" fill="#F3E600">
                                <path d="M5.1,36.6 C-0.3,29.9 -0.9,18.8 3.8,12 C4.7,10.6 5.3,10.4 6.6,11.6 C16.1,20.2 31.8,20.3 41.3,11.6 C42.9,10.1 43.5,10.9 44.3,12.3 C48.3,19.9 48.3,27.5 44.2,35.1 C43.5,36.3 43.1,36.9 41.5,35.8 C27.8,26.4 18.9,26.7 5.1,36.6 L5.1,36.6 Z"></path>
                                <path d="M9.9,41.6 C17.6,33.4 30.1,33.4 37.9,41.6 C30.3,49.1 16,48.1 9.9,41.6 L9.9,41.6 Z"></path>
                                <path d="M23,0.4 C28.6,0.4 32.7,1.7 36.5,4.1 C38.1,5.1 38.1,5.8 36.7,7.1 C30.1,13.1 18.1,13.1 11.3,7.2 C9.6,5.7 9.9,4.9 11.7,3.9 C15.5,1.6 19.5,0.3 23,0.4 L23,0.4 Z"></path>
                            </g>
                        </g>
                    </g>
                </g>
            </g>
        </g>
    </g>
</svg>